<mxfile host="app.diagrams.net" modified="2024-04-22T07:25:48.484Z" agent="Mozilla/5.0 (Windows NT 10.0; Win64; x64) AppleWebKit/537.36 (KHTML, like Gecko) Chrome/123.0.0.0 Safari/537.36" version="24.2.7" etag="r-Ys1llDKNn-FG2wop97" type="github">
  <diagram name="第1頁" id="pS-KEcKBNNj8oihcNV3U">
    <mxGraphModel>
      <root>
        <mxCell id="0" />
        <mxCell id="1" parent="0" />
      </root>
    </mxGraphModel>
  </diagram>
</mxfile>
